<svg width="40" height="40" viewBox="0 0 28 32" fill="none" xmlns="http://www.w3.org/2000/svg">
<mask id="mask0_192_7868" style="mask-type:luminance" maskUnits="userSpaceOnUse" x="0" y="0" width="28" height="32">
<path d="M27.6757 0H0V32H27.6757V0Z" fill="white"/>
</mask>
<g mask="url(#mask0_192_7868)">
<path d="M14.0581 17.0438V27.378L4.80078 27.9726V13.9395C4.8601 12.967 5.01029 12.8644 5.24277 12.3862C5.51972 11.8163 5.90861 11.3111 6.38121 10.8989C6.45392 10.8343 6.52854 10.7735 6.60507 10.7146C7.4015 10.0997 8.40171 9.73401 9.48754 9.73401C11.266 9.73401 12.8149 10.7151 13.617 12.163C13.8093 12.5106 13.9595 12.8862 14.0581 13.2809C14.0581 13.2809 14.0705 16.5903 14.0581 17.0438Z" fill="url(#paint0_linear_192_7868)"/>
<path d="M22.9142 13.8143C22.9142 17.2339 20.1528 20.0058 16.7465 20.0058C16.7016 20.0058 16.6566 20.0053 16.6117 20.0039C16.5662 20.0053 16.5203 20.0058 16.4744 20.0058C14.0679 20.0058 11.8675 18.4268 11.7474 16.1322C11.7436 16.0819 11.725 15.9062 11.6991 15.5405C11.5087 13.9691 9.9905 12.7952 8.26418 12.7952C6.53786 12.7952 5.01052 14.0632 4.80579 15.6977L4.80005 14.2132C4.80005 14.2132 4.78331 12.1314 4.84215 10.786C5.04018 7.15609 8.55836 4.3244 13.1858 4.3244C16.559 4.3244 19.4669 5.79129 20.7952 7.90544C21.6787 9.114 22.3154 10.5818 22.7009 12.1936C22.7019 12.1974 22.7033 12.2012 22.7042 12.2054C22.7459 12.3788 22.7841 12.554 22.82 12.7307C22.821 12.734 22.821 12.7373 22.8214 12.7406C22.8827 13.0892 22.9142 13.4482 22.9142 13.8143Z" fill="url(#paint1_linear_192_7868)"/>
<path d="M4.82812 27.9508L14.6264 27.8858C15.4912 27.8801 16.0102 27.4788 17.1697 26.7798L22.8428 23.0387C23.3561 22.466 22.7601 21.9289 21.4351 21.9698L14.0524 21.9237L4.8286 27.9508H4.82812Z" fill="url(#paint2_linear_192_7868)"/>
</g>
<defs>
<linearGradient id="paint0_linear_192_7868" x1="7.88271" y1="25.98" x2="12.7469" y2="8.32679" gradientUnits="userSpaceOnUse">
<stop stop-color="#7D95F7"/>
<stop offset="0.6" stop-color="#3753C0"/>
</linearGradient>
<linearGradient id="paint1_linear_192_7868" x1="9.23138" y1="5.25943" x2="17.5588" y2="20.5516" gradientUnits="userSpaceOnUse">
<stop stop-color="#3753C0"/>
<stop offset="1" stop-color="#7D95F7"/>
</linearGradient>
<linearGradient id="paint2_linear_192_7868" x1="19.2825" y1="25.93" x2="4.98344" y2="24.475" gradientUnits="userSpaceOnUse">
<stop offset="0.12" stop-color="#7D95F7"/>
<stop offset="0.72" stop-color="#3753C0"/>
</linearGradient>
</defs>
</svg>
