<svg width="30" height="30" viewBox="0 0 20 20" fill="none" xmlns="http://www.w3.org/2000/svg">
<g clip-path="url(#clip0_192_7836)">
<path d="M18.4162 18.415C18.1303 17.5237 17.5688 16.7462 16.8126 16.1945C16.0564 15.6429 15.1446 15.3456 14.2086 15.3456C13.2725 15.3456 12.3607 15.6429 11.6045 16.1945C10.8483 16.7462 10.2868 17.5237 10.001 18.415" stroke="#9F84FD" stroke-width="1.5" stroke-linecap="round" stroke-linejoin="round"/>
<path d="M14.2084 13.2025C15.4284 13.2025 16.4175 12.2134 16.4175 10.9932C16.4175 9.77307 15.4284 8.78394 14.2084 8.78394C12.9881 8.78394 11.999 9.77307 11.999 10.9932C11.999 12.2134 12.9881 13.2025 14.2084 13.2025Z" stroke="#9F84FD" stroke-width="1.5" stroke-linecap="round" stroke-linejoin="round"/>
<path d="M1.58594 18.415H7.37137" stroke="#9F84FD" stroke-width="1.5" stroke-linecap="round" stroke-linejoin="round"/>
<path d="M11.8687 6.72736V2.91532C11.8687 2.18025 11.2801 1.58435 10.5539 1.58435H4.35192C3.62578 1.58435 3.03711 2.18025 3.03711 2.91532V18.415" stroke="#9F84FD" stroke-width="1.5" stroke-linecap="round" stroke-linejoin="round"/>
<path d="M3.03711 5.16516H6.2221" stroke="#9F84FD" stroke-width="1.5" stroke-linecap="round" stroke-linejoin="round"/>
<path d="M3.03711 8.48267H8.01845" stroke="#9F84FD" stroke-width="1.5" stroke-linecap="round" stroke-linejoin="round"/>
</g>
<defs>
<clipPath id="clip0_192_7836">
<rect width="20" height="20" fill="white" transform="translate(0.000976562 -0.000488281)"/>
</clipPath>
</defs>
</svg>
