<svg width="30" height="30" viewBox="0 0 20 20" fill="none" xmlns="http://www.w3.org/2000/svg">
<g clip-path="url(#clip0_192_7863)">
<path d="M8.86528 2.52921C9.00864 2.68835 9.18385 2.81559 9.37953 2.90269C9.57522 2.98978 9.78702 3.03479 10.0012 3.03479C10.2154 3.03479 10.4272 2.98978 10.6229 2.90269C10.8186 2.81559 10.9938 2.68835 11.1372 2.52921L11.8762 1.71827C12.088 1.48385 12.3672 1.32073 12.6754 1.25129C12.9836 1.18185 13.3058 1.2095 13.5977 1.33045C13.8895 1.45139 14.1368 1.6597 14.3056 1.92679C14.4744 2.19387 14.5563 2.50665 14.5403 2.82218L14.4848 3.91593C14.4741 4.12929 14.5082 4.34254 14.5849 4.54193C14.6616 4.74132 14.7792 4.92244 14.9301 5.07361C15.0811 5.22478 15.262 5.34266 15.4613 5.41965C15.6606 5.49664 15.8738 5.53103 16.0872 5.52062L17.1809 5.46515C17.4962 5.4496 17.8087 5.53196 18.0754 5.70092C18.342 5.86989 18.55 6.11719 18.6706 6.40895C18.7912 6.70071 18.8187 7.02263 18.7492 7.3306C18.6797 7.63857 18.5167 7.91752 18.2825 8.12921L17.4684 8.86359C17.3095 9.00715 17.1824 9.18247 17.0954 9.3782C17.0085 9.57393 16.9635 9.78573 16.9635 9.99992C16.9635 10.2141 17.0085 10.4259 17.0954 10.6216C17.1824 10.8174 17.3095 10.9927 17.4684 11.1362L18.2825 11.8706C18.5169 12.0824 18.68 12.3616 18.7495 12.6698C18.8189 12.978 18.7912 13.3002 18.6703 13.5921C18.5494 13.8839 18.341 14.1312 18.074 14.3C17.8069 14.4688 17.4941 14.5508 17.1786 14.5347L16.0848 14.4792C15.871 14.4682 15.6572 14.5022 15.4573 14.5791C15.2575 14.6559 15.076 14.7738 14.9246 14.9252C14.7732 15.0766 14.6552 15.2581 14.5784 15.458C14.5016 15.6579 14.4676 15.8716 14.4786 16.0855L14.534 17.1792C14.548 17.4932 14.465 17.8038 14.2963 18.0689C14.1276 18.3341 13.8814 18.5409 13.5911 18.6612C13.3008 18.7815 12.9804 18.8095 12.6736 18.7415C12.3668 18.6734 12.0884 18.5126 11.8762 18.2808L11.1411 17.4675C10.9976 17.3086 10.8223 17.1815 10.6267 17.0946C10.431 17.0076 10.2192 16.9627 10.0051 16.9627C9.791 16.9627 9.57927 17.0076 9.3836 17.0946C9.18793 17.1815 9.01268 17.3086 8.86919 17.4675L8.13091 18.2808C7.91904 18.5137 7.64051 18.6755 7.33329 18.7443C7.02606 18.8131 6.7051 18.7855 6.41414 18.6652C6.12319 18.545 5.87641 18.3379 5.70745 18.0722C5.53848 17.8066 5.45555 17.4953 5.46997 17.1808L5.52622 16.087C5.53722 15.8732 5.5032 15.6594 5.42637 15.4596C5.34954 15.2597 5.23161 15.0782 5.0802 14.9268C4.9288 14.7754 4.74729 14.6575 4.54743 14.5806C4.34757 14.5038 4.13381 14.4698 3.91997 14.4808L2.82622 14.5362C2.51082 14.5527 2.19805 14.4711 1.93086 14.3027C1.66367 14.1343 1.45515 13.8874 1.33394 13.5957C1.21273 13.3041 1.18476 12.982 1.25388 12.6739C1.323 12.3657 1.48581 12.0865 1.71997 11.8745L2.53325 11.1402C2.69219 10.9966 2.81925 10.8213 2.90621 10.6255C2.99317 10.4298 3.03811 10.218 3.03811 10.0038C3.03811 9.78964 2.99317 9.57784 2.90621 9.38211C2.81925 9.18637 2.69219 9.01106 2.53325 8.86749L1.71997 8.12921C1.48657 7.91749 1.32425 7.63886 1.2552 7.3314C1.18616 7.02394 1.21375 6.70266 1.3342 6.41147C1.45466 6.12029 1.66211 5.87341 1.92819 5.70458C2.19427 5.53576 2.50599 5.45323 2.82075 5.46827L3.9145 5.52374C4.12874 5.53501 4.34296 5.50108 4.54323 5.42416C4.74351 5.34725 4.92536 5.22907 5.07699 5.07729C5.22862 4.92552 5.34662 4.74355 5.42334 4.5432C5.50006 4.34285 5.53378 4.1286 5.52231 3.91437L5.46997 2.81984C5.45521 2.5052 5.53789 2.19367 5.70672 1.92776C5.87556 1.66185 6.12233 1.45451 6.41336 1.33403C6.70439 1.21355 7.02551 1.1858 7.33289 1.25456C7.64028 1.32333 7.91896 1.48527 8.13091 1.71827L8.86528 2.52921Z" stroke="#8E99AA" stroke-width="1.5" stroke-linecap="round" stroke-linejoin="round"/>
<path d="M6.48535 10.0002C6.48535 10.4619 6.57629 10.9191 6.75296 11.3456C6.92964 11.7722 7.1886 12.1597 7.51505 12.4862C7.84151 12.8126 8.22907 13.0716 8.65561 13.2483C9.08214 13.4249 9.5393 13.5159 10.001 13.5159C10.4627 13.5159 10.9198 13.4249 11.3463 13.2483C11.7729 13.0716 12.1604 12.8126 12.4869 12.4862C12.8134 12.1597 13.0723 11.7722 13.249 11.3456C13.4257 10.9191 13.5166 10.4619 13.5166 10.0002C13.5166 9.53857 13.4257 9.08141 13.249 8.65487C13.0723 8.22834 12.8134 7.84078 12.4869 7.51432C12.1604 7.18787 11.7729 6.92891 11.3463 6.75223C10.9198 6.57555 10.4627 6.48462 10.001 6.48462C9.5393 6.48462 9.08214 6.57555 8.65561 6.75223C8.22907 6.92891 7.84151 7.18787 7.51505 7.51432C7.1886 7.84078 6.92964 8.22834 6.75296 8.65487C6.57629 9.08141 6.48535 9.53857 6.48535 10.0002Z" stroke="#8E99AA" stroke-width="1.5" stroke-linecap="round" stroke-linejoin="round"/>
</g>
<defs>
<clipPath id="clip0_192_7863">
<rect width="20" height="20" fill="white" transform="translate(0.000976562 -0.000488281)"/>
</clipPath>
</defs>
</svg>
