
<svg width="30" height="30" viewBox="0 0 20 20" fill="none" xmlns="http://www.w3.org/2000/svg">
<g clip-path="url(#clip0_192_7855)">
<path d="M9.80439 11.2802C10.7859 11.2802 11.5815 10.4846 11.5815 9.50312C11.5815 8.5217 10.7859 7.72607 9.80439 7.72607C8.82298 7.72607 8.02734 8.5217 8.02734 9.50312C8.02734 10.4846 8.82298 11.2802 9.80439 11.2802Z" stroke="#8E99AA" stroke-width="1.4" stroke-miterlimit="10" stroke-linecap="round" stroke-linejoin="round"/>
<path d="M12.7829 14.0439C12.3937 12.7692 11.1887 11.8134 9.80448 11.8134C8.42031 11.8134 7.21526 12.7692 6.82617 14.0439" stroke="#8E99AA" stroke-width="1.4" stroke-miterlimit="10" stroke-linecap="round" stroke-linejoin="round"/>
<path d="M17.6246 10.885C17.6246 8.223 16.2945 5.87174 14.2625 4.45959M5.34844 4.45959C3.31651 5.87174 1.98633 8.223 1.98633 10.885C1.98633 11.1418 1.99871 11.3958 2.02292 11.6463M11.5406 18.5109C10.9825 18.6373 10.4018 18.7041 9.80546 18.7041C8.57596 18.7041 7.4127 18.4203 6.37767 17.9146" stroke="#8E99AA" stroke-width="1.4" stroke-linecap="round"/>
<path d="M0.78418 15.7395C0.78418 16.2938 1.00438 16.8254 1.39633 17.2174C1.78828 17.6093 2.31988 17.8295 2.87418 17.8295C3.42848 17.8295 3.96008 17.6093 4.35203 17.2174C4.74398 16.8254 4.96418 16.2938 4.96418 15.7395C4.96418 15.1852 4.74398 14.6536 4.35203 14.2617C3.96008 13.8697 3.42848 13.6495 2.87418 13.6495C2.31988 13.6495 1.78828 13.8697 1.39633 14.2617C1.00438 14.6536 0.78418 15.1852 0.78418 15.7395Z" stroke="#8E99AA" stroke-width="1.4"/>
<path d="M11.7738 5.23383H7.83496V1.29492H11.7738V5.23383Z" stroke="#8E99AA" stroke-width="1.4" stroke-linejoin="round"/>
<path d="M14.1602 17.7867L16.689 13.4673L19.2178 17.7867H14.1602Z" stroke="#8E99AA" stroke-width="1.4" stroke-linecap="round" stroke-linejoin="round"/>
</g>
<defs>
<clipPath id="clip0_192_7855">
<rect width="20" height="20" fill="white" transform="translate(0.000976562 -0.000488281)"/>
</clipPath>
</defs>
</svg>
